<svg id="圖層_7" data-name="圖層 7" xmlns="http://www.w3.org/2000/svg" viewBox="0 0 138.84 83.26"><defs><style>.cls-1{fill:none;stroke:#231815;stroke-linecap:round;stroke-linejoin:round;stroke-width:2px;}</style></defs><title>hugo</title><path class="cls-1" d="M13.33,32S23,19.14,27,20.92s-6.47,35.17-6.47,35.17,3.32-10.66,2.66-12.66-5.79-2-2.9-3.56S41.53,36.64,43.86,36s4.79-16.24,4-14.46-5.42,27.69-5,30.2c.41,2.67,1.95,1.86,3.49.21,2.88-3.09,6.78-7.88,9.25-9.25,1.85-1,.77,2,.21,3.7-.82,2.46-2,5.55-.41,7s5.14.83,7.63-1.4c1.92-1.71,4.29-7.32,4.64-10s-.62-.49-1,1.34c-1,5.35-1.83,8.16,1.24,9.25,2.87,1,7.88-2.59,11.1-6.16s6.23-5.55,8-5.55-.92-.76-4.18.59c-4,1.67-7.28,7.8-4.25,10.3s4.78,2,7.47-.11,5.72-10.37,4.46-8.23-4.4,21.77-4.94,25-2.72,7.52-7.19,5.55-4.46-5.91-2.88-8c3.08-4.11,14.63-12.25,16-13.36,3.9-3.08,9.45-7.4,10.48-9,.76-1.22,2.39-3.33.41-2.67s-6.87,9.26-2.88,11.71c2.91,1.79,8,.62,10.28-3.49s1.14-7.56-2.26-8.64-2,3-.79,3.33,5.26.88,8.22-.53c3.89-1.85,6.44-3.4,7-6.26"/></svg>